<svg xmlns="http://www.w3.org/2000/svg" width="256" height="256"><path fill="#1976D2" fill-opacity=".016" fill-rule="evenodd" d="M0 128.004v128.004l128.25-.254 128.25-.254.254-127.75L257.008 0H0v128.004m.485.496c0 70.4.119 99.053.265 63.672.146-35.38.146-92.98 0-128C.604 29.153.485 58.1.485 128.5"/><path fill="#1976D2" fill-opacity=".342" fill-rule="evenodd" d="M32.494 78.25C30.418 84.108 0 176.904 0 177.379c0 .342 13.964.621 31.032.621 28.574 0 31.51-.161 37.078-2.037 7.748-2.61 13.097-6.015 19.05-12.128 5.148-5.285 6.826-9.486 6.834-17.117.007-5.641-1.629-9.959-5.523-14.577-2.72-3.225-2.755-3.402-.902-4.436C95.458 123.307 106 108.48 106 101.783c0-9.463-5.729-18.351-14.444-22.409-4.911-2.287-5.822-2.355-31.837-2.364-20.53-.008-26.885.282-27.225 1.24m89.649 22.814c-4.416 13.236-7.667 23.923-7.224 23.75.442-.173 11.266-11.001 24.053-24.064L162.22 77h-32.048l-8.029 24.064m41.522 2.467c-19.556 19.952-25.695 26.797-25.26 28.164.316.993 5.062 11.705 10.548 23.805l9.973 22h18.427l5.961-17.25 5.961-17.25 13.113-.008c22.867-.013 31.527-2.631 41.083-12.419 14.291-14.637 16.626-35.199 5.262-46.34-6.834-6.701-9.588-7.246-36.109-7.146l-23.124.086-25.835 26.358M52.081 97.286c-.478 1.258-1.853 5.59-3.055 9.628-1.203 4.038-2.424 7.959-2.713 8.714-.424 1.103 1.318 1.372 8.884 1.372 8.075 0 10.134-.361 14.513-2.543 8.256-4.114 10.592-11.309 5.367-16.534C72.252 95.098 71.831 95 62.552 95c-9.082 0-9.649.124-10.471 2.286m151.526 2.867c-3.008 7.343-6.959 20.829-6.295 21.492 1.162 1.162 17.909-1.175 21.853-3.05 4.131-1.964 8.49-7.62 9.407-12.207.477-2.383.058-3.707-1.892-5.975-2.393-2.783-2.934-2.929-12.103-3.26l-9.598-.347-1.372 3.347m-98.381 51.645C100.702 165.408 97 176.871 97 177.272c0 .4 8.775.728 19.5.728s19.5-.211 19.5-.468c0-.869-21.15-49.025-21.852-49.756-.383-.398-4.397 10.412-8.922 24.022M38.495 138.25c-.243.688-1.624 5.043-3.068 9.679-1.445 4.635-2.855 9.023-3.134 9.75-.724 1.887 20.509 1.854 24.989-.039 5.291-2.236 8.718-6.385 8.718-10.554 0-7.595-4.613-10.071-18.781-10.08-5.727-.004-8.418.38-8.724 1.244"/><path fill="#1976D2" fill-opacity=".249" fill-rule="evenodd" d="M16.88 126.844.273 176.688l23.614.584c31.451.778 42.033-.024 49.722-3.767 8.399-4.088 17.698-13.62 19.218-19.698.645-2.581 1.173-5.763 1.173-7.072 0-4.247-3.016-11.372-6.187-14.615-1.704-1.743-2.921-3.304-2.705-3.471.215-.166 1.967-1.248 3.892-2.405 4.774-2.869 8.21-6.651 12.433-13.685 3.032-5.05 3.567-6.841 3.567-11.934 0-7.325-2.685-13.395-7.784-17.598C90.538 77.522 87.233 77 59.066 77H33.488L16.88 126.844m106.218-27.588A11767.418 11767.418 0 0 0 115.213 123c-.594 1.847 20.03-18.353 34.97-34.25L161.225 77l-15.362.006-15.363.006-7.402 22.244m41.23 4.28c-14.205 14.596-25.697 27.083-25.536 27.75.16.668 4.885 11.449 10.5 23.958l10.208 22.744 8.623.006 8.623.006 5.994-17.25 5.995-17.25 15.882-.658c17.94-.743 23.747-1.799 29.982-5.453 6.154-3.607 13.793-12.358 17.625-20.191 2.753-5.629 3.276-7.815 3.273-13.698-.004-8.896-2.414-15.289-7.496-19.88-6.334-5.722-11.23-6.62-36.104-6.62h-21.74l-25.829 26.536M49.147 105.25c-1.753 5.638-3.178 10.877-3.167 11.643.016 1.144 1.831 1.268 10.17.694 14.845-1.023 20.635-4.501 21.59-12.97.432-3.834.139-4.829-2.073-7.041C73.23 95.139 72.531 95 62.713 95H52.335l-3.188 10.25m151.289 3c-2.052 6.188-3.962 11.879-4.247 12.648-.816 2.207 16.126.941 21.965-1.642 10.556-4.669 14.297-17.451 6.189-21.146-1.34-.61-6.429-1.11-11.307-1.11h-8.871l-3.729 11.25m-95.185 44.467c-4.513 13.564-8.056 24.811-7.873 24.994.183.183 8.898.211 19.367.061l19.035-.272-10.45-24c-5.747-13.2-10.77-24.325-11.162-24.722-.392-.397-4.404 10.376-8.917 23.939m-70.092-5.43C33.421 152.945 32 158.177 32 158.913c0 1.066 2.295 1.247 11.25.887 16.774-.673 23.233-4.663 22.561-13.936-.261-3.609-.856-4.665-3.709-6.581-2.985-2.006-4.636-2.283-13.591-2.283H38.317l-3.158 10.287"/><path fill="#1976D2" fill-opacity=".306" fill-rule="evenodd" d="M33.465 78.25C31.72 82.871 1 175.64 1 176.289c0 .447 14.749.677 32.775.512l32.774-.301 6.721-3.31c7.65-3.768 16.115-11.475 18.27-16.632 3.219-7.704 1.24-19.042-4.343-24.877-2.633-2.751-2.65-2.845-.697-3.935 8.369-4.675 18.505-19.135 18.494-26.386-.015-10.559-6.865-19.765-16.926-22.749-7.09-2.103-53.828-2.412-54.603-.361m97.05.5c-.384.963-4.042 11.65-8.129 23.75l-7.43 22 4.846-5c2.666-2.75 13.103-13.437 23.193-23.75L161.341 77h-15.063c-13.414 0-15.141.192-15.763 1.75m77.392-.783-18.593.533-25.157 25.64C150.321 118.241 139 130.216 139 130.75c0 .534 4.654 11.271 10.341 23.86l10.341 22.89 8.409.277 8.409.278 6-17.527 6-17.527 6.5-.023c15.917-.057 31.145-1.898 36.686-4.435 7.488-3.428 15.306-11.724 19.998-21.221 3.357-6.795 3.802-8.537 3.698-14.492-.161-9.27-3.859-16.908-10.103-20.868-4.507-2.858-12.501-5.147-16.578-4.745-1.211.119-10.568.456-20.794.75M52.198 95.659C51.215 97.524 45 116.505 45 117.64c0 1.375 21.535-.314 24.631-1.932 8.228-4.3 11.142-13.752 5.791-18.784-2.302-2.164-3.634-2.461-12.416-2.765-8.741-.303-9.946-.136-10.808 1.5m147.923 12.478c-2.267 6.801-4.121 12.703-4.121 13.114 0 1.341 14.503.789 19.68-.749 5.867-1.742 9.86-5.316 12.475-11.165 1.402-3.136 1.624-4.788.898-6.698-1.697-4.463-5.449-6.02-15.577-6.463l-9.234-.404-4.121 12.365m-93.819 42.638c-3.93 11.949-7.431 22.718-7.778 23.932l-.631 2.207 18.554.293c10.206.161 18.555.036 18.554-.278-.002-.973-20.061-46.385-20.828-47.154-.398-.399-3.94 9.051-7.871 21M38.147 137.75c-.754 1.428-3.505 9.781-6.752 20.5-.483 1.596.468 1.748 10.788 1.728 8.81-.017 12.212-.429 15.358-1.858 8.712-3.957 12.159-12.511 7.087-17.583-3.166-3.166-8.516-4.525-17.843-4.531-6.332-.005-7.88.308-8.638 1.744"/></svg>